<svg height="627" viewBox="0 0 444 627" width="444" xmlns="http://www.w3.org/2000/svg"><g fill="none" fill-rule="evenodd"><g transform="translate(188.691734)"><path d="m93.4009795 28.5745388c5.4789668 19.8444377 12.6190375 64.4500932 5.3331089 71.4470982h-46.0948883c-.0047071-.0803844-.0093221-.1605646-.0138455-.240541-17.0847563-1.8583434-30.3726499-16.0958316-30.3726499-33.3837851v-32.808083c0-18.5508183 15.3001299-33.5892279 34.1737965-33.5892279h3.1789579c17.1398239 0 31.3325239 12.4022951 33.7955204 28.5745388z" fill="#191847"/><path d="m13.1327101 53.8835688c-7.32417504-8.4500357-12.28132989-18.8056709-11.45298641-30.4094574 2.38668823-33.43374017 49.73758341-26.07874333 58.94831291-9.2042624 9.2107294 16.874481 8.1162554 59.6780013-3.7877918 62.6939419-4.7473176 1.2027527-14.8605154-1.7435102-25.1533915-7.8413687l6.4606405 44.9247238h-38.1474938z" fill="#d4a181" transform="translate(27.021141 6.249159)"/><path d="m50.4658991 54.4845929c1.7576098 18.556886 1.0534587 39.7484469-4.1846146 44.778804h-46.09488837c-2.56827017-43.859161 22.25270467-26.8749305 22.25270467-68.1694696 1.5474916-1.4861256 3.0097457-2.9570505 4.4566592-4.2255771l-.0512462-1.2144596c7.9818446-16.06106724 18.1081717-24.09160093 30.3789813-24.09160093 18.4062145 0 24.2159766 8.41812026 29.1625869 15.56522583-3.6989691 12.4750232-18.0536998 14.3247918-30.8087748 22.1008154-1.503467-1.2006314-3.4205987-1.9202082-5.5087216-1.9202082-4.8281472 0-8.742134 3.8470349-8.742134 8.5925932 0 4.7455581 3.9139868 8.5925931 8.742134 8.5925931.1331542 0 .2656129-.002926.3973135-.0087161z" fill="#191847"/></g><g transform="translate(-.308266 243)"><path d="m155.79065 161.951209c38.128837 10.541164 71.025246 15.811746 98.689225 15.811746s53.359563-8.116603 77.08675-24.349809c-37.312535-10.819546-68.04107-16.229319-92.185605-16.229319s-52.00799 8.255794-83.59037 24.767382z" fill="#1f28cf"/><path d="m287.487339 192.956833c-.367652-.546303-.678137-1.14057-.924406-1.784301-5.096582-13.322168-86.73131-157.0417515-94.864122-183.31753954h91.909186c6.183492 19.97785274 34.014789 145.34840254 37.931568 170.36167454 12.35816 39.45573 37.802378 167.238431 41.050541 176.090826 3.417013 9.312569-15.809385 19.013859-20.932767 7.565209-8.152167-18.216733-27.576338-68.622108-36.225119-99.399279-8.108211-28.853532-14.71046-54.811771-17.944881-69.51659z" fill="#ba8b72"/><path d="m212.292855 210.503736c-37.322055 9.323686-173.8382621 26.179259-183.2066021 28.823012-9.637099 2.719598-18.0869909-16.914555-6.175016-21.167645 18.9539634-6.767385 71.1807115-22.403717 102.8459781-28.784595 25.469622-5.132392 48.710965-9.320418 64.314591-11.772879-1.321903-43.322983-7.364658-147.2914981-3.403966-169.74663654h81.322506c-3.798039 21.53296794-35.904526 178.65035754-41.871974 194.37736354-1.893776 5.614647-7.544407 8.095907-13.825517 8.27138z" fill="#d4a181"/><path d="m2.66723441 10.0574133c-1.77815627 4.6917661-2.66723441 8.2022913-2.66723441 10.5315758 0 2.8329599.47748043 6.966953 1.43244129 12.4019793h89.64543401c2.3295671-7.6122618.9848059-11.7218771-4.0342837-12.3288456-5.0190894-.6069686-9.1885323-1.1550127-12.5083286-1.6441322l-41.6663384-18.35992525c-.8017432-.35328159-1.7414316.00274092-2.0988526.79519827-.0061145.01355678-.0120344.02719854-.0177577.04092122l-2.6782801 6.42159741c-4.6463641 2.14277475-8.4220173 3.21416195-11.3269597 3.21416195-2.3601966 0-5.6196482-.9421676-9.77835469-2.82650252l.00000869-.00001869c-1.59592459-.72312307-3.48275315-.03056189-4.21434956 1.54687879-.03153288.06798999-.06059957.13707119-.08714453.20711152z" fill="#e4e4e4" transform="matrix(.17364818 .98480775 -.98480775 .17364818 33.137816 208.060314)"/><path d="m2.66723441 10.0574133c-1.77815627 4.6917661-2.66723441 8.2022913-2.66723441 10.5315758 0 2.8329599.47748043 6.966953 1.43244129 12.4019793h89.64543401c2.3295671-7.6122618.9848059-11.7218771-4.0342837-12.3288456-5.0190894-.6069686-9.1885323-1.1550127-12.5083286-1.6441322l-41.6663384-18.35992525c-.8017432-.35328159-1.7414316.00274092-2.0988526.79519827-.0061145.01355678-.0120344.02719854-.0177577.04092122l-2.6782801 6.42159741c-4.6463641 2.14277475-8.4220173 3.21416195-11.3269597 3.21416195-2.3601966 0-5.6196482-.9421676-9.77835469-2.82650252l.00000869-.00001869c-1.59592459-.72312307-3.48275315-.03056189-4.21434956 1.54687879-.03153288.06798999-.06059957.13707119-.08714453.20711152z" fill="#e4e4e4" transform="translate(333.156032 350.332664)"/><path d="m186.93059 7.85499246c35.836103-10.13410135 69.743453-10.13410135 101.722046 0 11.125849 50.17371444 38.159977 70.08770054 42.913989 147.01235154-54.039837 26.540131-120.794931-18.928126-176.424175 6.953844-15.89407-36.202409 6.357628-123.3874669 31.78814-153.96619554z" fill="#181414"/></g><g transform="translate(65.691734 86)"><path d="m276.29886 102.739388 62.695826-8.4720431c12.541709-6.9107777 24.079473-11.5892532 34.61329-14.0354268 2.964327-.0857406 7.679999.9817971.654954 6.7835578-7.025046 5.8017607-14.152945 12.2197197-12.901294 15.3160181 1.25165 3.096298 7.784854 1.944268 8.867147 6.706638.721529 3.174914-9.881462 3.690806-31.808975 1.547676l-50.872291 19.980201zm-196.9506039 14.376251 34.7714049.129276c-38.1277892 84.999741-58.0082098 129.504257-59.6412619 133.513551-3.6743676 9.020909 4.1010882 22.759598 7.4261818 30.142667-10.8297189 4.800687-9.6758008-12.97822-23.3371998-6.681851-12.4694914 5.747035-21.9550025 16.160278-36.3616981 7.35398-1.7712186-1.082682-3.71218555-5.159178.97743612-8.344743 11.68355758-7.936405 28.52027198-21.826544 30.79517738-26.398589 3.1022398-6.234803 18.2255595-49.472899 45.3699596-129.714291z" fill="#d4a181" fill-rule="nonzero"/><path d="m167.55274 15.283826 27.284757-.5898284c11.902673 59.2880858 51.593272 93.9143504 131.957298 73.962871l17.549151 76.1549794c-75.305761 16.430249-144.728536-7.911484-165.547412-88.4808189-5.389349-20.8568557-10.108299-42.6405217-11.243794-61.0472031z" fill="#afb9c5" transform="matrix(.9961947 .08715574 -.08715574 .9961947 9.007626 -21.956611)"/><path d="m161.159753.02507426 41.249176 9.35880955c0 70.28407299 22.60001 115.12647219 34.191819 166.80157419h-111.402979c-1.569306 17.855923-2.533002 36.208574-3.035181 55.057956h-83.4146332c18.9022237-99.632934 58.798423-176.7140724 119.6885972-231.243414h2.701505z" fill="#c5cfd6"/><path d="m142.774186 75.9158746c-2.870952 43.7966834-1.182463 77.2198784 5.065466 100.2695834h-22.641883c3.10879-35.372531 8.594201-68.795719 17.576412-100.2695665z" fill="#000" fill-opacity=".1"/></g></g></svg>