<?xml version="1.0" standalone="no"?>
<!DOCTYPE svg PUBLIC "-//W3C//DTD SVG 20010904//EN"
 "http://www.w3.org/TR/2001/REC-SVG-20010904/DTD/svg10.dtd">
<svg version="1.0" xmlns="http://www.w3.org/2000/svg"
 width="575.000000pt" height="206.000000pt" viewBox="0 0 575.000000 206.000000"
 preserveAspectRatio="xMidYMid meet">
<metadata>
Created by potrace 1.15, written by Peter Selinger 2001-2017
</metadata>
<g transform="translate(0.000000,206.000000) scale(0.100000,-0.100000)"
fill="#000000" stroke="none">
<path d="M1515 1926 c-55 -30 -60 -36 -63 -69 l-3 -37 70 0 71 0 0 70 c0 39
-3 70 -7 70 -5 0 -35 -15 -68 -34z"/>
<path d="M820 1525 l0 -375 70 0 70 0 0 180 c0 201 7 232 59 269 39 28 120 31
158 6 45 -30 53 -68 53 -270 l0 -185 71 0 70 0 -3 218 c-3 210 -4 218 -28 262
-37 66 -93 101 -172 107 -74 6 -126 -7 -175 -45 l-33 -24 0 116 0 116 -70 0
-70 0 0 -375z"/>
<path d="M1450 1450 l0 -300 70 0 70 0 0 300 0 300 -70 0 -70 0 0 -300z"/>
<path d="M383 1726 c-88 -28 -171 -113 -194 -200 -18 -65 -6 -167 24 -219 76
-130 238 -190 380 -141 51 17 132 84 160 133 18 31 18 31 -5 40 -13 5 -40 16
-60 24 l-37 15 -26 -34 c-35 -46 -74 -64 -135 -64 -99 0 -169 59 -178 149 -9
100 65 181 165 181 67 0 111 -18 146 -60 l28 -32 52 19 c29 12 53 27 55 37 6
27 -106 130 -162 149 -58 20 -154 21 -213 3z"/>
<path d="M1846 1724 c-71 -22 -159 -112 -180 -184 -44 -147 12 -282 145 -355
74 -40 179 -46 261 -16 60 23 126 80 153 131 15 29 15 31 -7 39 -13 5 -39 15
-59 24 -36 15 -36 15 -63 -19 -41 -51 -79 -67 -150 -62 -75 5 -120 33 -147 92
-23 52 -23 90 0 142 26 58 72 87 143 92 70 5 108 -9 149 -55 l30 -35 59 22 59
22 -14 29 c-25 48 -96 108 -152 129 -64 24 -156 25 -227 4z"/>
<path d="M2480 1731 c-83 -26 -140 -74 -183 -155 -17 -33 -21 -58 -22 -131 0
-81 3 -95 30 -143 16 -30 42 -65 58 -78 100 -84 243 -98 339 -34 l43 29 3 -34
3 -35 70 0 69 0 0 295 0 295 -70 0 -70 0 0 -37 c0 -34 -1 -35 -18 -20 -53 48
-175 71 -252 48z m162 -121 c21 -6 51 -27 71 -50 57 -63 62 -150 12 -216 -35
-46 -80 -68 -140 -68 -161 -2 -243 183 -128 291 51 48 113 63 185 43z"/>
<path d="M3064 1717 c-113 -54 -145 -174 -67 -249 34 -33 64 -44 171 -68 128
-28 160 -60 109 -108 -18 -17 -36 -22 -76 -22 -57 0 -82 10 -123 48 l-27 25
-53 -23 c-29 -12 -57 -26 -61 -30 -13 -11 60 -88 107 -113 56 -30 222 -32 276
-3 77 41 112 92 112 164 0 84 -56 130 -200 162 -107 24 -142 41 -142 69 0 35
38 56 99 56 47 0 64 -5 93 -27 l36 -28 58 26 57 25 -34 35 c-55 58 -102 77
-199 81 -74 4 -92 1 -136 -20z"/>
<path d="M3867 1726 c-166 -60 -248 -241 -182 -400 22 -53 81 -114 139 -144
45 -23 63 -26 151 -27 113 0 154 15 219 80 63 62 63 69 3 104 l-52 30 -30 -34
c-40 -45 -84 -65 -141 -65 -68 0 -129 32 -159 84 -14 24 -25 46 -25 49 0 4
108 7 240 7 l240 0 0 58 c0 112 -85 225 -193 257 -62 18 -159 19 -210 1z m187
-120 c18 -8 43 -24 55 -37 43 -46 34 -49 -144 -49 -91 0 -165 4 -165 9 0 16
50 62 82 76 42 18 129 19 172 1z"/>
<path d="M4340 1445 l0 -295 65 0 65 0 0 178 c0 152 3 183 19 219 43 95 181
104 238 16 15 -23 19 -56 21 -220 l4 -193 64 0 64 0 0 204 c0 227 -8 267 -62
323 -71 73 -202 85 -297 25 l-51 -31 0 34 0 35 -65 0 -65 0 0 -295z"/>
<path d="M4785 998 c-27 -40 -54 -78 -58 -85 -6 -10 5 -13 52 -13 l61 0 53 73
c77 105 77 97 5 97 l-63 -1 -50 -71z"/>
<path d="M343 986 c-62 -41 -63 -41 -63 -88 l0 -47 -52 -3 -53 -3 -3 -57 -3
-57 53 -3 53 -3 5 -175 c4 -152 8 -179 25 -210 30 -49 75 -72 156 -78 l69 -5
0 62 c0 42 -4 61 -12 61 -7 0 -30 5 -50 10 -32 9 -39 17 -48 50 -6 22 -9 95
-8 162 l3 123 58 3 57 3 0 59 0 60 -60 0 -59 0 -3 88 -3 89 -62 -41z"/>
<path d="M3140 630 l0 -380 70 0 70 0 0 380 0 380 -70 0 -70 0 0 -380z"/>
<path d="M795 841 c-143 -37 -229 -146 -229 -291 -1 -170 111 -280 291 -288
114 -5 172 15 240 85 29 30 53 57 53 61 0 4 -24 22 -54 39 l-53 30 -27 -33
c-15 -19 -40 -41 -57 -50 -39 -19 -125 -20 -171 -1 -38 16 -84 69 -90 102 -3
19 3 20 235 23 l237 2 0 58 c0 103 -66 199 -167 244 -48 21 -161 32 -208 19z
m144 -121 c38 -10 91 -56 91 -77 0 -10 -36 -13 -165 -13 -155 0 -165 1 -156
18 35 65 139 98 230 72z"/>
<path d="M1433 836 c-141 -46 -221 -162 -211 -307 7 -91 46 -160 118 -212 65
-45 104 -57 196 -57 111 0 211 58 259 150 l14 28 -51 21 c-28 11 -55 21 -59
21 -5 0 -25 -18 -44 -39 -115 -127 -332 -24 -301 142 26 135 198 185 298 85
21 -21 42 -38 47 -38 4 0 31 10 59 21 46 19 50 23 41 42 -25 45 -92 106 -142
127 -64 28 -166 35 -224 16z"/>
<path d="M1860 555 l0 -295 70 0 70 0 0 181 c0 202 8 236 64 270 38 23 106 25
147 3 51 -26 59 -61 59 -269 l0 -185 71 0 70 0 -3 213 c-3 205 -4 214 -29 262
-18 35 -39 59 -74 80 -43 27 -57 30 -125 30 -69 0 -82 -3 -128 -32 l-52 -32 0
34 0 35 -70 0 -70 0 0 -295z"/>
<path d="M2697 840 c-140 -35 -239 -177 -223 -317 13 -111 96 -215 198 -249
77 -25 188 -16 257 21 210 115 203 411 -12 522 -55 28 -158 38 -220 23z m163
-140 c103 -52 121 -193 35 -269 -116 -102 -285 -29 -285 124 0 128 132 205
250 145z"/>
<path d="M3575 841 c-184 -48 -282 -250 -201 -415 32 -65 80 -110 154 -143 46
-22 65 -24 135 -21 127 5 210 58 269 170 32 62 32 174 -1 242 -51 103 -144
164 -260 171 -36 2 -79 1 -96 -4z m179 -155 c47 -35 66 -74 66 -131 0 -118
-96 -192 -211 -165 -53 13 -113 68 -125 115 -19 75 21 164 88 199 50 26 136
17 182 -18z"/>
<path d="M4225 841 c-79 -20 -152 -78 -192 -154 -26 -49 -30 -186 -8 -244 41
-106 150 -183 260 -183 78 0 120 13 167 50 l38 31 0 -50 c0 -114 -67 -184
-176 -183 -63 0 -101 19 -147 72 l-34 41 -57 -33 c-30 -18 -56 -37 -56 -42 0
-20 67 -90 114 -116 49 -29 56 -30 179 -30 143 0 170 8 227 63 18 18 45 57 59
87 l26 55 3 323 3 322 -70 0 -71 0 0 -41 0 -40 -35 27 c-64 48 -148 65 -230
45z m183 -138 c38 -18 77 -72 87 -120 3 -17 1 -51 -5 -74 -33 -123 -194 -169
-290 -83 -128 116 -31 322 140 297 19 -2 50 -12 68 -20z"/>
<path d="M4710 555 l0 -295 65 0 65 0 0 295 0 295 -65 0 -65 0 0 -295z"/>
<path d="M5101 831 c-65 -23 -97 -46 -138 -100 -40 -52 -53 -97 -53 -186 1
-117 60 -211 165 -261 93 -44 227 -28 293 35 l22 22 0 -41 0 -40 70 0 70 0 0
295 0 295 -70 0 -70 0 0 -35 0 -35 -55 31 c-73 41 -156 48 -234 20z m207 -128
c38 -18 77 -72 87 -120 16 -77 -42 -169 -122 -193 -147 -44 -281 102 -217 237
43 89 153 122 252 76z"/>
</g>
</svg>
